<svg width="41" height="46" viewBox="0 0 41 46" xmlns="http://www.w3.org/2000/svg"><title>apple</title><path d="M31.6 24.9c-.05-5.56 4.553-8.264 4.763-8.39-2.606-3.8-6.645-4.32-8.064-4.36-3.394-.357-6.685 2.03-8.413 2.03-1.762 0-4.424-1.995-7.292-1.937-3.69.057-7.144 2.194-9.037 5.512-3.908 6.766-.994 16.71 2.75 22.178 1.874 2.68 4.062 5.67 6.927 5.564 2.803-.115 3.85-1.786 7.232-1.786 3.35 0 4.334 1.787 7.256 1.72 3.008-.048 4.9-2.69 6.71-5.393 2.163-3.07 3.033-6.094 3.067-6.25-.07-.023-5.842-2.225-5.9-8.888zM26.083 8.55c1.508-1.885 2.54-4.45 2.253-7.052-2.182.097-4.91 1.51-6.482 3.353-1.39 1.625-2.63 4.287-2.31 6.792 2.45.183 4.966-1.237 6.54-3.093z" fill="#B3B3B3" id="Page-1" fill-rule="evenodd"/></svg>