<svg width="46" height="46" viewBox="0 0 46 46" xmlns="http://www.w3.org/2000/svg"><title>chrome</title><g transform="translate(1 1)" fill="#B3B3B3" fill-rule="evenodd"><path d="M21.924 12.157v-.025H41.61C38.022 4.934 30.57 0 21.974 0 14.853 0 8.52 3.383 4.502 8.647l7.63 13.2c.05-5.34 4.425-9.69 9.792-9.69z" id="Shape"/><circle cx="22.025" cy="22" r="8.215"/><path d="M26.73 13.43c2.976 1.678 5.01 4.882 5.01 8.545 0 2.263-.762 4.35-2.06 6.002l-9.18 15.92c.483.027.99.052 1.5.052 12.132 0 21.975-9.844 21.975-21.975 0-3.027-.61-5.926-1.73-8.546H26.73z" id="Shape"/><path d="M21.924 31.766c-4.07 0-7.554-2.467-9.055-6.002L3.66 9.817C1.348 13.302 0 17.473 0 21.975 0 33.14 8.317 42.347 19.075 43.77l7.63-13.224c-1.4.763-3.026 1.22-4.78 1.22z"/></g></svg>