<svg width="46" height="46" viewBox="0 0 46 46" xmlns="http://www.w3.org/2000/svg"><title>google</title><g id="Page-1" fill="none" fill-rule="evenodd"><g fill-opacity=".331" fill="#A2A2A2"><path d="M32.608 15.644L6.276.954C5.53.537 4.84.44 4.282.617l21.57 21.884 6.756-6.858" id="path-2"/></g><path d="M32.608 15.644L6.276.954C5.53.537 4.84.44 4.282.617l21.57 21.884 6.756-6.858" fill-opacity=".331" fill="#A2A2A2"/><path d="M32.642 29.393l8.99-5.016c1.822-1.02 1.822-2.68 0-3.7l-9.023-5.033-6.76 6.858 6.792 6.89" fill-opacity=".331" fill="#070707"/><g fill-opacity=".331" fill="#A2A2A2" opacity=".602"><path d="M4.28.618c-.8.255-1.318 1.077-1.318 2.322l.005 39.176c0 1.23.502 2.04 1.28 2.31l21.604-21.92L4.28.617" id="path-6"/></g><path d="M2.962 2.94l.005 39.176c0 1.23.502 2.04 1.28 2.31l21.604-21.92L4.28.617c-.8.255-1.318 1.077-1.318 2.322z" fill-opacity=".331" fill="#A2A2A2"/><g fill-opacity=".331" fill="#A2A2A2"><path d="M4.247 44.427c.56.193 1.263.103 2.03-.323l26.362-14.71-6.79-6.89L4.248 44.428" id="path-9"/></g><path d="M4.247 44.427c.56.193 1.263.103 2.03-.323l26.362-14.71-6.79-6.89L4.248 44.428" fill="#A2A2A2"/></g></svg>