<svg width="41" height="46" viewBox="0 0 41 46" xmlns="http://www.w3.org/2000/svg"><title>linux</title><path d="M19.852 11.502c0 .142-.144.142-.144.142h-.144c-.144 0-.144-.142-.288-.284 0 0-.144-.142-.144-.284s0-.142.144-.142l.288.142c.144.142.288.284.288.426m-2.59-1.42c0-.71-.29-1.135-.72-1.135 0 0 0 .142-.145.142v.283h.432c0 .284.143.426.143.71h.288m5.04-.71c.288 0 .432.284.575.71h.288c-.144-.142-.144-.284-.144-.426 0-.142 0-.284-.145-.426-.143-.14-.287-.283-.43-.283 0 0-.145.142-.29.142 0 .14.145.14.145.283m-4.32 2.27c-.143 0-.143 0-.143-.14 0-.143 0-.285.144-.427.288 0 .432-.142.432-.142.144 0 .144.142.144.142 0 .142-.144.284-.43.568h-.145m-1.583-.142c-.576-.284-.72-.71-.72-1.42 0-.425 0-.71.288-.993.144-.285.432-.427.72-.427s.432.142.72.426c.144.425.288.85.288 1.276v.284h.144v-.142c.144 0 .144-.284.144-.85 0-.427 0-.853-.287-1.278-.288-.426-.576-.71-1.152-.71-.43 0-.863.284-1.007.71-.288.567-.345.993-.345 1.703 0 .567.2 1.135.777 1.702.144-.14.288-.14.432-.283m17.996 20.01c.144 0 .144-.057.144-.185 0-.312-.144-.68-.576-1.093-.43-.425-1.15-.695-2.014-.81-.144-.013-.288-.013-.288-.013-.144-.027-.144-.027-.288-.027-.144-.014-.432-.043-.576-.07.432-1.32.576-2.485.576-3.506 0-1.42-.288-2.413-.864-3.264-.576-.852-1.152-1.278-1.872-1.42-.144.142-.144.142-.144.284.72.284 1.44.852 1.872 1.703.432.994.576 1.845.576 2.84 0 .793-.144 1.97-.72 3.475-.576.227-1.152.753-1.584 1.576 0 .128 0 .2.144.2 0 0 .144-.128.288-.37.288-.24.432-.482.72-.723.432-.242.72-.37 1.152-.37.72 0 1.44.1 1.87.3.577.183.865.382 1.01.61.143.212.287.41.43.595 0 .184.145.27.145.27M21.148 10.934c-.144-.142-.144-.426-.144-.71 0-.567 0-.85.288-1.277.288-.284.576-.426.864-.426.432 0 .72.285 1.007.57.144.425.288.71.288 1.134 0 .71-.287 1.136-.862 1.278 0 0 .144.142.287.142.288 0 .432.14.72.283.144-.85.288-1.42.288-2.128 0-.853-.144-1.42-.432-1.846-.43-.426-.862-.568-1.438-.568-.432 0-.864.142-1.296.426-.288.426-.432.71-.432 1.135 0 .71.144 1.277.432 1.845.144 0 .288.142.432.142m1.727 2.27c-1.87 1.278-3.31 1.846-4.463 1.846-1.007 0-2.015-.426-2.88-1.136.145.284.29.568.433.71l.864.85c.575.57 1.295.853 2.014.853 1.008 0 2.16-.568 3.6-1.56l1.295-.853c.287-.284.575-.567.575-.993 0-.14 0-.283-.144-.283-.143-.284-.863-.71-2.302-1.135-1.296-.568-2.304-.852-2.88-.852-.432 0-1.15.284-2.16.852-.863.567-1.44 1.135-1.44 1.703 0 0 .145.142.29.425.863.71 1.727 1.136 2.59 1.136 1.152 0 2.592-.568 4.464-1.987v.283c.143 0 .143.142.143.142m3.312 28.666c.576 1.068 1.583 1.605 2.735 1.605.288 0 .576-.043.864-.128.288-.057.576-.156.72-.27.144-.1.288-.198.432-.312.288-.1.288-.17.432-.24l2.447-2.087c.576-.453 1.152-.85 1.872-1.192.575-.34 1.15-.568 1.438-.696.432-.113.72-.283 1.008-.51.144-.213.288-.483.288-.823 0-.412-.288-.724-.576-.95-.288-.228-.576-.384-.864-.484-.288-.1-.575-.326-1.007-.71-.288-.368-.576-.88-.72-1.546l-.144-.823c-.144-.384-.144-.667-.288-.823 0-.042 0-.056-.144-.056-.143 0-.43.127-.575.37-.288.24-.576.51-.864.793-.143.284-.575.54-.863.78-.43.242-.863.37-1.15.37-1.153 0-1.73-.312-2.16-.922-.29-.455-.433-.98-.577-1.576-.288-.242-.432-.37-.72-.37-.72 0-1.007.738-1.007 2.228v4.414c0 .128-.144.41-.144.85-.145.44-.145.94-.145 1.506l-.288 1.575v.024m-20.876-.75c1.34.192 2.88.605 4.623 1.235 1.742.625 2.807.95 3.196.95 1.007 0 1.842-.44 2.533-1.29.144-.274.144-.598.144-.97 0-1.34-.82-3.036-2.462-5.094l-.98-1.292c-.2-.27-.446-.68-.762-1.234-.303-.554-.576-.98-.792-1.278-.186-.326-.49-.652-.877-.98-.375-.325-.807-.538-1.282-.652-.603.114-1.02.313-1.222.582-.202.27-.317.568-.346.88-.043.298-.13.497-.273.596-.145.085-.39.156-.72.227-.073 0-.203 0-.39.014h-.39c-.762 0-1.28.087-1.554.23-.36.41-.547.878-.547 1.375 0 .227.057.61.172 1.15.115.525.173.95.173 1.248 0 .582-.173 1.164-.533 1.746-.36.61-.547 1.063-.547 1.387.144.55 1.094.938 2.836 1.165m4.795-12.9c0-.98.26-2.058.792-3.335.52-1.277 1.037-2.13 1.54-2.696-.028-.14-.1-.14-.215-.14l-.144-.143c-.418.426-.922 1.42-1.526 2.838-.605 1.277-.922 2.455-.922 3.32 0 .64.16 1.193.447 1.676.316.47 1.08 1.15 2.29 2.016l1.525.98c1.627 1.39 2.49 2.355 2.49 2.922 0 .298-.143.596-.575.923-.288.34-.677.512-1.008.512-.03 0-.044.028-.044.1 0 .013.144.297.446.85.605.81 1.9 1.207 3.628 1.207 3.167 0 5.615-1.278 7.486-3.833 0-.71 0-1.15-.144-1.334v-.525c0-.922.144-1.618.432-2.072.288-.454.576-.667 1.008-.667.288 0 .576.098.864.31.144-1.09.144-2.042.144-2.894 0-1.29 0-2.356-.288-3.35-.144-.85-.432-1.56-.72-2.128l-.864-1.277c-.288-.425-.432-.85-.72-1.276-.144-.568-.288-.994-.288-1.703-.43-.71-.72-1.418-1.15-2.128-.29-.71-.577-1.42-.865-1.987l-1.296.994c-1.44.992-2.592 1.418-3.6 1.418-.864 0-1.584-.142-2.016-.71l-.863-.71c0 .427-.143.994-.43 1.562l-.908 1.703c-.403.993-.62 1.56-.663 1.987-.058.283-.1.567-.13.567l-1.08 2.13c-1.166 2.128-1.756 4.1-1.756 5.732 0 .326.028.666.086 1.007-.648-.44-.965-1.05-.965-1.845m10.31 13.425c-1.873 0-3.313.25-4.32.745v-.042c-.72.85-1.527 1.29-2.65 1.29-.705 0-1.813-.27-3.31-.808-1.512-.51-2.85-.902-4.017-1.16-.116-.033-.375-.082-.792-.147-.403-.064-.778-.13-1.11-.194-.3-.063-.647-.16-1.02-.29-.36-.112-.65-.26-.865-.436-.198-.18-.295-.38-.295-.606 0-.227.05-.47.146-.728.094-.156.194-.312.295-.454.1-.156.187-.298.245-.44.086-.128.144-.255.2-.397.06-.13.117-.257.145-.413.03-.142.058-.284.058-.426 0-.14-.058-.566-.173-1.318-.115-.738-.173-1.207-.173-1.405 0-.625.144-1.122.46-1.476.318-.354.62-.54.937-.54H5.83c.13 0 .33-.07.633-.24.1-.227.187-.41.245-.582.072-.17.1-.298.13-.354.028-.086.057-.17.086-.242.057-.1.13-.213.23-.326-.115-.142-.173-.327-.173-.554 0-.156 0-.298.03-.383 0-.512.245-1.235.763-2.186l.504-.894c.418-.767.734-1.334.965-1.902.244-.568.504-1.42.79-2.554.232-.994.78-1.987 1.643-2.98l1.08-1.278c.748-.85 1.238-1.56 1.51-2.13.275-.566.42-1.276.42-1.843 0-.284-.073-1.136-.232-2.555-.144-1.42-.216-2.838-.216-4.115 0-.994.087-1.703.274-2.413.188-.71.52-1.42 1.01-1.987.43-.567 1.006-1.135 1.87-1.42.864-.283 1.872-.425 3.024-.425.432 0 .863 0 1.295.142.43 0 1.007.142 1.727.426.576.284 1.152.568 1.584.993.576.425 1.008 1.135 1.44 1.844.288.852.576 1.703.72 2.84.144.708.144 1.418.288 2.41 0 .853.144 1.42.144 1.846.144.426.144.993.288 1.703.144.568.288 1.135.576 1.56.288.57.576 1.136 1.008 1.704.432.71 1.007 1.42 1.583 2.27 1.296 1.42 2.304 2.98 2.88 4.542.72 1.418 1.15 3.263 1.15 5.236 0 .98-.143 1.93-.43 2.852.287 0 .43.114.575.312.144.2.288.625.432 1.292l.144 1.05c.144.312.288.61.72.865.288.256.576.47 1.008.64.288.14.72.34 1.008.595.288.284.432.582.432.894 0 .483-.144.837-.432 1.093-.288.283-.576.48-1.008.61-.288.14-.864.425-1.728.825-.72.42-1.44.93-2.16 1.533l-1.44 1.207c-.575.554-1.15.95-1.583 1.193-.43.255-1.007.383-1.583.383l-1.008-.113c-1.152-.298-1.872-.865-2.304-1.73-2.303-.276-4.175-.413-5.326-.413" fill="#B3B3B3" fill-rule="evenodd"/></svg>