<svg xmlns="http://www.w3.org/2000/svg" viewBox="0 0 203.4 90.3"><path fill="#FFF" d="M109.6 6h-6.3c-2.1 0-4.4-.9-6.7-.9-16.9 0-30.8 18.8-30.8 41.9C65.8 68.1 77 85.5 92 88.4v.6h17.6c16.9 0 30.7-18.4 30.7-41.5S126.5 6 109.6 6z"/><path fill="#D0D7DD" d="M103.1 6.1C89.3 10.2 78.9 26.9 78.9 47c0 20.1 10.4 36.8 24.2 40.9 13.8-4.1 24.2-20.8 24.2-40.9 0-20.1-10.4-36.8-24.2-40.9z"/><path fill="#3B5163" d="M105.7 46c.8-1.1 1.3-2.4 1.3-3.9 0-4.7-2.5-7.6-6.6-7.6v-5.7c0-.2-.1-.4-.3-.4h-2c-.2 0-.3.2-.3.4v5.7h-2.6v-5.7c0-.2-.1-.4-.3-.4h-2c-.2 0-.3.2-.3.4v5.7H87c-.2 0-.3.2-.3.4v2.3c0 .2.2.4.3.4h.3c1.5 0 2.6 1.4 2.6 3v12.1c0 1.6-1.3 2.9-2.7 3-.1 0-.3.1-.3.3l-.2 2.3c0 .1 0 .2.1.3.1.1.2.1.3.1h5.5v5.7c0 .2.1.4.3.4h2c.2 0 .3-.2.3-.4v-5.7h2.6v5.7c0 .2.1.4.3.4h2c.2 0 .3-.2.3-.4v-5.7h1.3c4.1 0 6.6-2.8 6.6-7.6 0-2.1-1.1-4-2.6-5.1zm-10.6-6.9h4c1.5 0 2.6 1.4 2.6 3 0 1.7-1.2 3-2.6 3h-4v-6zm5.3 15.1h-5.3v-6.1h5.3c1.5 0 2.6 1.4 2.6 3 0 1.8-1.2 3.1-2.6 3.1zM96.3 10s-.1 0 0 0c-.1 0-.1 0 0 0-.1 0-.1 0 0 0-.6 0-1.1.4-1.1 1s.4 1 1 1 1-.4 1-1c.1-.6-.4-1-.9-1zm-5.7.6c-.1 0-.2 0-.3.1-.5.2-.8.7-.6 1.3.1.4.5.7.9.7.1 0 .2 0 .3-.1.5-.2.8-.7.6-1.3-.1-.4-.5-.7-.9-.7zm-5.1 2.6c-.2 0-.4.1-.6.2-.5.3-.6.9-.3 1.4.2.3.5.4.8.4.2 0 .4-.1.6-.2.5-.3.6-.9.3-1.4-.2-.2-.5-.4-.8-.4zm-4.4 3.9c-.3 0-.5.1-.7.3-.4.4-.3 1 .1 1.4.2.2.4.3.7.3.3 0 .5-.1.7-.3.4-.4.3-1-.1-1.4-.2-.2-.4-.3-.7-.3zm-2.6 6.2c.3-.5.1-1.1-.3-1.4-.2-.1-.3-.2-.5-.2-.3 0-.7.2-.9.5-.3.5-.1 1.1.3 1.4.2.1.3.1.5.1m27.1 56c-.2 0-.3 0-.5.1-.5.3-.7.9-.4 1.3.2.3.5.5.9.5.2 0 .3 0 .5-.1.5-.3.7-.9.4-1.3-.2-.3-.6-.5-.9-.5zm4.7-3.3c-.2 0-.5.1-.7.3-.4.4-.4 1-.1 1.4.2.2.5.3.7.3.2 0 .5-.1.7-.3V78v-.1.1c.4-.4.4-1 .1-1.4-.2-.1-.4-.2-.7-.2zm3.9-4.3c-.3 0-.6.1-.8.4-.3.4-.2 1.1.2 1.4.2.1.4.2.6.2.3 0 .6-.1.8-.4.3-.4.2-1.1-.2-1.4-.2-.1-.4-.2-.6-.2zm3.1-5c-.4 0-.7.2-.9.5-.3.5-.1 1.1.4 1.3.1.1.3.1.5.1.4 0 .7-.2.9-.5.2-.5.1-1.1-.4-1.3-.2-.1-.3-.1-.5-.1zm2.3-5.4c-.4 0-.8.3-.9.7-.2.5.1 1.1.6 1.3.1 0 .2.1.3.1.4 0 .8-.3.9-.7.2-.5-.1-1.1-.6-1.3-.1-.1-.2-.1-.3-.1zm1.5-5.8c-.5 0-.9.3-1 .8v.1c-.1.5.2 1.1.8 1.2h.2c.5 0 .9-.3 1-.8.1-.5-.2-1.1-.8-1.2 0-.1-.1-.1-.2-.1zm.9-5.8c-.5 0-1 .4-1 .9v.1c0 .6.4 1 .9 1.1.5 0 1-.4 1-.9.1-.7-.3-1.2-.9-1.2zm.1-6.1c-.6 0-1 .5-1 1.1 0 .5.5.9 1 .9.6 0 1-.4 1-.9V45c0-.6-.4-1-1-1zm-.5-5.8h-.1c-.5.1-.9.6-.8 1.1v.1c.1.5.5.9 1 .9h.1c.5-.1.9-.6.8-1.1-.1-.6-.5-1-1-1zm-1.2-5.8h-.3c-.5.1-.8.7-.7 1.2v.1c.1.4.5.7 1 .7h.3c.5-.1.6-.7.5-1.2h-.2l.3-.2v.1c-.1-.5-.5-.7-.9-.7zm-2-5.6c-.1 0-.3 0-.4.1-.5.2-.7.8-.5 1.3.2.4.5.6.9.6.1 0 .3 0 .4-.1.5-.2.7-.8.5-1.3-.1-.3-.5-.6-.9-.6zm-2.7-5.2c-.2 0-.4 0-.5.2-.5.3-.6.9-.3 1.4.2.3.5.5.8.5.2 0 .4 0 .5-.2.5-.3.6-.9.3-1.4-.2-.3-.5-.5-.8-.5zm-3.6-4.7c-.2 0-.5.1-.7.3-.4.4-.4 1-.1 1.4.2.2.5.3.7.3.2 0 .5-.1.7-.3.4-.4.4-1 .1-1.4-.1-.2-.4-.3-.7-.3zm-4.3-3.8c-.3 0-.6.2-.8.4-.3.5-.2 1.1.3 1.4.2.1.4.2.6.2.3 0 .6-.2.8-.4.3-.5.2-1.1-.3-1.4-.3-.1-.5-.2-.6-.2zm-5.2-2.5c-.4 0-.8.3-1 .7-.2.5.1 1.1.6 1.3h.3c.4 0 .8-.3 1-.7.2-.5-.1-1.1-.6-1.3h-.3z"/><path fill="#3B5163" d="M202.5 66.9c.1-7.8.4-12.2.9-18.7-3.3.3-7.2.4-14.2.4 0 0 .3-43.2.6-46.7L167.4 0l-26.8 36.5c-1.1-5.6-2.6-10.7-5.6-15.2V21h.2c-5.9-10-15.5-16.9-26-16.9L99 3.8c-1-.1-1.6-.2-2.5-.2-17.8.1-32.1 19.5-32.1 43.4 0 .5 0 1 .1 1.5h-5.2s.3-43.2.6-46.7L37.4 0 0 50.8l1.6 16c6.8-.4 34.7-.7 34.7-.7s0 17.9-.7 21.9h24.5c-.3-3-.8-21.4-.8-21.4 3.4 0 6.3.1 8.7.2 5.3 14 16.2 23.6 28.6 23.6.9 0 13-.2 13-.2 12.5 0 23.3-9.7 28.7-23.6 6.1-.2 28-.4 28-.4s0 17.9-.7 21.9h24.5c-.3-3-.8-21.4-.8-21.4 6-.1 10.2.1 13.2.2zM37.4 50H21.5L38 27.2 37.4 50zM136 30l.9 3h-9.8c-.3-1-.5-2-.8-3h9.7zm-5.9 21h-1.5c.1-1 .1-2 .1-3h3.3l-2 2.6.1.4zm.3 3l.3 3h-2.8c.2-1 .3-2 .5-3h2zm.5 6l.3 3h-4.8c.3-1 .6-2 .8-3h3.7zm3.9-33h-9.7c-.4-1-.8-2-1.3-3h9.5c.6 1 1.1 2 1.5 3zm-5.2-9l2.1 3h-9.3l-1.8-3h9zm-2.5-3h-8.7l-2.7-3h8c1.2 1 2.3 2 3.4 3zm-17.5-7.9c3.2 0 6.2.9 9.1 1.9h-6.4c-1-1-2-1.4-3-2l.3.1zM67.4 47c0-22.2 13-40.3 29-40.3 5.3 0 10.5 2 14.5 5.5V12h.3c8.7 7 14.5 20.1 14.5 34.9 0 22.2-13.1 40.4-29.2 40.4S67.4 69.2 67.4 47zm42.2 40h-.9c1.6-1 3.4-1.7 4.4-2.9V84h7.7c-3.6 2-7.3 3-11.2 3zm15.3-6h-8.6c.9-1 1.7-2 2.6-3h9.1c-1 1-2 2-3.1 3zm5.5-6H121c.6-1 1.2-2 1.7-3h9.6c-.6 1-1.2 2-1.9 3zm3.5-6h-9.7l1.2-3h6.1l.1.8c1-.1 2.2-.2 3.4-.2-.3.9-.7 1.4-1.1 2.4zm.3-24h-5.5c0-1-.1-2-.2-3h7.9l-2.2 3zm-6-6c-.1-1-.3-2-.5-3h9.9c.2 1 .4 2 .5 3h-9.9zm39.2 11h-15.9L168 27.2l-.6 22.8z"/><circle fill="#3B5163" cx="99.6" cy="82.8" r="1"/><circle fill="#3B5163" cx="93.6" cy="82.8" r="1"/><circle fill="#3B5163" cx="87.6" cy="80.8" r="1"/><circle fill="#3B5163" cx="83.6" cy="77.8" r="1"/><circle fill="#3B5163" cx="79.6" cy="73.8" r="1"/><circle fill="#3B5163" cx="76.6" cy="68.8" r="1"/><circle fill="#3B5163" cx="73.6" cy="62.8" r="1"/><circle fill="#3B5163" cx="72.6" cy="56.8" r="1"/><circle fill="#3B5163" cx="71.6" cy="51.8" r="1"/><circle fill="#3B5163" cx="71.6" cy="44.8" r="1"/><circle fill="#3B5163" cx="71.6" cy="39.8" r="1"/><circle fill="#3B5163" cx="72.6" cy="33.8" r="1"/><circle fill="#3B5163" cx="74.6" cy="27.8" r="1"/></svg>