<svg width="57" height="25" viewBox="0 0 57 25" xmlns="http://www.w3.org/2000/svg"><title>copay-logo</title><g fill="#2C3E50" id="Copay-1.0" fill-rule="evenodd"><path d="M55.816 2.947c-.4.045-.822.134-1.274.277-.143.045-.272.134-.392.254-.12.127-.22.224-.294.307-.075.082-.15.224-.234.434-.083.208-.143.365-.18.485-.038.112-.1.33-.182.644-.09.313-.15.552-.203.717-.354 1.19-.92 2.394-1.688 3.63-.77 1.233-1.44 1.876-2.014 1.936-.3.03-.482-.217-.543-.755-.113-1.01.098-2.282.61-3.824.52-1.54 1.07-2.626 1.667-3.262.083-.104.128-.187.12-.254-.007-.06-.045-.09-.105-.082-.844.09-1.5.26-1.967.523-.468.254-.882.762-1.267 1.526-.293.59-.54 1.324-.76 2.214-1.07 2.552-2.043 3.876-2.917 3.966-.286.03-.452-.157-.498-.57-.082-.785.16-2.086.74-3.897.58-1.812 1.107-2.956 1.59-3.435l-.242.022-1.198.105c-.317.037-.648.202-.987.51-.34.306-.573.65-.71 1.03-.195-.485-.534-.822-1-1-.476-.18-.966-.248-1.47-.188-1.087.12-2.036.62-2.866 1.518-.82.89-1.417 1.938-1.778 3.12l-.023.068c-.052.12-.12.254-.18.396-.407.883-.723 1.512-.957 1.886-.43.68-.95 1.324-1.568 1.915-.618.59-1.26.928-1.914.995l-.188.023c.965-.808 1.756-1.878 2.382-3.225.626-1.347.874-2.61.746-3.816-.158-1.45-.77-2.117-1.84-2.005-1.13.12-2.336 1.24-3.602 3.35.626-1.66 1.153-2.678 1.583-3.037l-.715.075c-.942.097-1.583.36-1.922.778-.166.225-.407.846-.7 1.87-.107.367-.25.906-.438 1.61-.566 1.286-1.236 1.967-2.013 2.05-.444.044-.806-.083-1.085-.39.24-.875.324-1.683.24-2.446-.217-1.99-1.273-2.88-3.172-2.68-1.13.12-2.118.607-2.955 1.468-.505.516-.92 1.077-1.236 1.683 0-.006.008-.014.008-.02-.77 1.428-2.096 3.912-3.762 5.333-1.665 1.422-3.31 2.222-4.922 2.394-2.585.277-4.032-.987-4.334-3.793-.196-1.81.083-3.65.845-5.507.76-1.863 1.853-3.426 3.277-4.69 1.425-1.265 2.955-1.99 4.583-2.17 1.23-.135 1.892.26 1.99 1.174.068.6-.143 1.138-.626 1.625-.482.48-1.032.755-1.65.823-.226.022-.43.015-.61-.03-.167.292-.234.553-.204.785.022.24.158.42.4.547.24.127.534.172.89.134.745-.082 1.446-.38 2.094-.898.648-.516 1.063-1.107 1.244-1.788.09-.36.12-.68.09-.965-.083-.77-.543-1.37-1.38-1.78C13.313.23 12.16.102 10.7.26c-1.47.158-2.91.712-4.335 1.662-1.425.95-2.57 2.087-3.437 3.42C2.05 6.67 1.403 8.078.966 9.567c-.437 1.49-.58 2.888-.437 4.198.376 3.456 2.433 4.983 6.187 4.58 1.613-.173 3.158-.652 4.635-1.445 1.478-.785 2.676-1.765 3.58-2.917.144-.187.272-.367.4-.54.008.136.015.263.03.398.106.988.437 1.69.995 2.118.558.426 1.23.598 2.028.51 1.243-.136 2.223-.57 2.947-1.296.724-.725 1.304-1.69 1.756-2.865.415.262.89.36 1.425.3.46-.053.927-.285 1.41-.712-.234.95-.498 2.05-.8 3.315-.874 3.673-1.485 5.836-1.84 6.48l1.147-.12c.316-.038.58-.105.776-.203.196-.104.37-.3.505-.59.137-.292.318-.92.536-1.886l.89-4.28c.28.757 1.176 1.05 2.713.884 1.53-.165 2.803-.786 3.813-1.87.626-.666 1.2-1.482 1.734-2.432-.015.38 0 .763.037 1.145.16 1.45.77 2.117 1.84 2.005 1.545-.165 3.06-1.938 4.53-5.32-.234.98-.294 1.96-.19 2.94.144 1.31.642 1.916 1.51 1.826 1.107-.12 2.313-1.406 3.617-3.853-.067.584-.082 1.07-.045 1.45.06.66.242 1.14.536 1.453.295.314.65.44 1.07.396.423-.044.785-.134 1.086-.26.302-.13.7-.458 1.2-.982.496-.523 1.07-1.294 1.725-2.304l-.972 3.74c-.625 2.38-1.59 3.645-2.88 3.78-.33.037-.617-.023-.85-.188-.234-.157-.37-.39-.4-.688-.06-.57.045-.913.324-1.04-.098-.15-.25-.277-.452-.382-.204-.104-.445-.142-.724-.112-.28.03-.512.195-.693.494-.19.3-.257.62-.22.973.077.666.408 1.114 1.01 1.36.604.248 1.298.33 2.097.24.8-.08 1.567-.366 2.306-.83.74-.47 1.334-1.055 1.794-1.758.46-.703.822-1.63 1.1-2.776.106-.38.234-.912.392-1.607.16-.696.264-1.13.302-1.31.045-.18.166-.688.37-1.534.195-.846.45-1.78.76-2.82.385-1.236.807-2.036 1.267-2.388l-1.024.105zm-33.58 5.56c-.4.044-.7.2-.904.478-.204.277-.286.628-.234 1.055.076.696.407 1.242 1.003 1.638-.3.913-.708 1.76-1.213 2.537-.505.778-1.1 1.204-1.786 1.28-.836.044-1.303-.412-1.41-1.355-.104-.943.07-2.035.52-3.262C19.034 8.648 20 7.48 21.1 7.36c.7-.074 1.13.3 1.282 1.13l-.144.016zm6.09 6.097c-.46.052-.73-.3-.813-1.04-.083-.74.18-1.736.79-2.978.612-1.242 1.215-2.155 1.81-2.73.362-.36.716-.555 1.048-.592.1-.008.167-.008.22 0 .248.037.39.254.437.65.098.914-.25 2.238-1.048 3.966-.8 1.73-1.614 2.634-2.443 2.724zm12.694-5.26c-.37.74-.807 1.4-1.312 1.968-.505.568-.965.882-1.38.927-.384.037-.602-.18-.655-.674-.12-1.137.234-2.477 1.063-4.025.83-1.548 1.77-2.38 2.826-2.49.588-.06.995.15 1.206.635-.346.786-.927 2.005-1.748 3.66z" id="Shape"/><path d="M23.148 17.76c-5.434.92-10.65 2.223-14.328 3.72-1.538.62-1.922 1.87-1.44 3.045 6.25-2.828 9.347-3.63 13.914-4.75.807-.203 1.455-.802 1.72-1.587.044-.15.09-.292.134-.427z" id="Shape"/><path d="M43.484 17.148c.16-.674-.022-.704-.716-.8-3.79-.547-7.96-.51-12.98.56-.843.18-1.537.763-1.672 1.616 0 0 6.3-2.057 15.368-1.376z"/></g></svg>