<svg width="69" height="30" viewBox="0 0 69 30" xmlns="http://www.w3.org/2000/svg"><title>download 3 copy</title><g fill="#FFF" fill-rule="evenodd"><path d="M67.19 3.536c-.48.054-.986.162-1.53.332-.17.054-.325.162-.47.306-.144.152-.262.27-.352.368-.09.098-.18.27-.28.52-.1.252-.172.44-.218.584-.045.135-.117.395-.217.772-.108.377-.18.665-.244.862-.426 1.428-1.104 2.873-2.027 4.355-.923 1.48-1.728 2.253-2.415 2.325-.362.036-.58-.26-.65-.907-.137-1.212.116-2.738.73-4.588.625-1.85 1.286-3.15 2-3.914.1-.125.154-.224.145-.305-.01-.07-.054-.107-.127-.098-1.013.107-1.8.314-2.36.628-.56.305-1.06.916-1.52 1.832-.353.71-.65 1.59-.913 2.657-1.285 3.062-2.452 4.65-3.5 4.76-.344.035-.543-.19-.598-.683-.1-.942.19-2.504.887-4.677.696-2.173 1.33-3.547 1.908-4.12l-.29.026-1.437.124c-.38.045-.778.243-1.185.61-.407.37-.688.782-.85 1.24-.236-.584-.643-.988-1.204-1.203-.57-.215-1.157-.295-1.763-.224-1.302.144-2.44.746-3.436 1.823-.986 1.067-1.7 2.324-2.135 3.743-.01.027-.02.054-.028.08-.063.144-.145.306-.217.477-.49 1.06-.868 1.813-1.15 2.262-.514.817-1.14 1.59-1.88 2.3-.742.708-1.51 1.112-2.298 1.193l-.226.027c1.16-.97 2.11-2.254 2.86-3.87s1.05-3.133.895-4.58c-.19-1.74-.923-2.54-2.207-2.405-1.357.143-2.804 1.49-4.324 4.022.75-1.994 1.384-3.215 1.9-3.646l-.86.09c-1.13.116-1.9.43-2.306.933-.2.27-.488 1.015-.84 2.245-.128.44-.3 1.086-.526 1.93-.678 1.545-1.483 2.362-2.415 2.46-.533.054-.967-.098-1.302-.466.29-1.05.39-2.02.29-2.936-.263-2.39-1.53-3.457-3.81-3.215-1.355.144-2.54.728-3.544 1.76-.605.62-1.103 1.293-1.482 2.02 0-.01.01-.018.01-.027-.924 1.715-2.516 4.696-4.515 6.402-2 1.706-3.97 2.666-5.906 2.873-3.103.332-4.84-1.185-5.2-4.552-.236-2.172.1-4.38 1.012-6.607.913-2.236 2.224-4.112 3.934-5.63 1.71-1.517 3.545-2.388 5.5-2.603 1.473-.162 2.27.314 2.387 1.41.082.718-.17 1.364-.75 1.948-.58.574-1.24.906-1.98.987-.272.027-.516.018-.733-.036-.2.35-.28.664-.245.942.027.287.19.503.48.655.29.153.642.207 1.067.162.894-.1 1.736-.46 2.513-1.078.778-.62 1.276-1.33 1.493-2.146.108-.43.145-.817.108-1.158-.1-.925-.65-1.643-1.655-2.137C16.184.278 14.8.125 13.046.314c-1.764.188-3.492.853-5.2 1.993C6.136 3.446 4.76 4.81 3.72 6.41 2.673 8.006 1.895 9.694 1.37 11.48.845 13.27.673 14.948.845 16.52c.452 4.147 2.922 5.978 7.426 5.494 1.937-.207 3.79-.782 5.564-1.733 1.772-.942 3.21-2.118 4.296-3.5.172-.225.326-.44.48-.647.008.16.017.314.035.476.127 1.184.525 2.028 1.194 2.54.67.51 1.474.718 2.432.61 1.493-.162 2.67-.682 3.537-1.553.867-.87 1.564-2.03 2.106-3.44.498.315 1.068.432 1.71.36.552-.063 1.112-.34 1.69-.853-.28 1.14-.596 2.46-.957 3.978-1.05 4.408-1.783 7.003-2.208 7.775l1.374-.144c.38-.045.697-.125.932-.242.235-.125.443-.358.606-.708.163-.35.38-1.105.642-2.263l1.068-5.137c.334.907 1.41 1.257 3.256 1.06 1.836-.198 3.364-.943 4.576-2.245.75-.8 1.44-1.777 2.08-2.918-.017.458 0 .916.046 1.374.19 1.742.923 2.54 2.207 2.406 1.853-.197 3.67-2.325 5.435-6.383-.28 1.176-.353 2.352-.226 3.528.17 1.57.768 2.3 1.808 2.19 1.33-.143 2.777-1.687 4.34-4.623-.08.7-.098 1.284-.053 1.742.072.79.29 1.364.642 1.742.353.377.778.53 1.285.475.506-.052.94-.16 1.302-.313.362-.152.84-.548 1.438-1.176.597-.628 1.285-1.552 2.072-2.764l-1.167 4.49c-.75 2.854-1.91 4.37-3.455 4.533-.398.044-.742-.028-1.022-.226-.28-.188-.444-.466-.48-.826-.072-.682.054-1.095.39-1.248-.118-.18-.3-.332-.544-.457-.244-.126-.533-.17-.868-.135-.335.036-.615.233-.832.592-.226.36-.308.746-.262 1.168.09.8.488 1.337 1.212 1.634.723.296 1.555.395 2.514.287.96-.1 1.882-.44 2.768-.998.886-.565 1.6-1.266 2.153-2.11.552-.843.987-1.957 1.32-3.33.128-.458.282-1.096.472-1.93.19-.836.316-1.357.36-1.572.056-.216.2-.826.445-1.84.235-1.015.542-2.137.913-3.385.46-1.482.968-2.443 1.52-2.865l-1.23.126zm-40.296 6.67c-.48.055-.84.243-1.085.576-.245.332-.345.754-.28 1.266.09.835.487 1.49 1.202 1.966-.362 1.095-.85 2.11-1.457 3.044-.606.933-1.32 1.445-2.143 1.535-1.004.054-1.565-.494-1.692-1.625-.126-1.132.082-2.442.624-3.915.986-2.675 2.144-4.076 3.465-4.22.84-.09 1.355.36 1.536 1.356l-.172.017zm7.31 7.318c-.553.063-.88-.36-.978-1.248-.1-.888.217-2.083.95-3.573.732-1.49 1.456-2.586 2.17-3.277.434-.43.86-.664 1.258-.71.117-.008.2-.008.262 0 .298.046.47.306.524.782.118 1.095-.298 2.684-1.257 4.758-.96 2.074-1.935 3.16-2.93 3.268zm15.23-6.31c-.443.888-.967 1.678-1.573 2.36-.606.682-1.157 1.06-1.655 1.113-.46.045-.723-.215-.787-.808-.144-1.365.28-2.973 1.276-4.83.995-1.86 2.125-2.856 3.392-2.99.705-.073 1.193.18 1.447.762-.416.943-1.113 2.406-2.1 4.39z" id="Shape"/><path d="M27.99 21.313c-6.523 1.105-12.782 2.667-17.196 4.463-1.845.745-2.306 2.244-1.727 3.654 7.498-3.394 11.216-4.355 16.697-5.702.968-.242 1.745-.96 2.062-1.903.054-.18.11-.35.163-.512z" id="Shape"/><path d="M52.392 20.577c.19-.808-.027-.844-.86-.96-4.55-.656-9.55-.61-15.575.673-1.013.215-1.845.916-2.008 1.94 0 0 7.56-2.47 18.442-1.653z"/></g></svg>