<svg width="26" height="30" viewBox="0 0 26 30" xmlns="http://www.w3.org/2000/svg"><title>fi-social-android</title><g fill="#748598" fill-rule="evenodd"><path d="M17.163 2.742l1.292-2.36c.07-.124.024-.282-.1-.35-.127-.07-.283-.022-.35.102L16.7 2.517c-1.1-.487-2.33-.762-3.628-.76-1.298-.002-2.525.27-3.62.758L8.145.137C8.078.01 7.92-.035 7.797.034c-.125.067-.17.224-.102.348L8.988 2.74c-2.54 1.31-4.256 3.805-4.255 6.67l16.68-.002c0-2.864-1.713-5.354-4.25-6.666zM9.278 6.388c-.384 0-.696-.313-.696-.7 0-.383.312-.698.697-.698.386 0 .698.315.7.7 0 .385-.314.698-.702.698zm7.595 0c-.385 0-.7-.313-.7-.7 0-.384.314-.7.7-.7.384 0 .698.316.698.7 0 .386-.312.7-.697.7zM25.773 11.553c0-1.023-.83-1.85-1.852-1.85-1.022-.002-1.85.828-1.85 1.85v7.754c0 1.024.83 1.852 1.853 1.85 1.022 0 1.85-.826 1.85-1.85v-7.754zM21.355 10.05l-16.553.003.002 12.016c0 .314.08.607.21.87.322.654.988 1.106 1.766 1.106h1.345l.002 4.102c0 .128.013.252.038.373.172.845.92 1.48 1.812 1.48.128 0 .253-.013.373-.038.844-.173 1.48-.92 1.48-1.814l-.002-4.103h2.5v4.103c0 .893.637 1.64 1.48 1.813.12.026.245.038.372.038 1.023 0 1.852-.83 1.852-1.852v-4.1l1.35-.002c.37 0 .71-.108 1.008-.285.577-.346.968-.97.968-1.693l-.003-12.017z" id="Shape"/><path d="M2.23 9.703c-1.022 0-1.85.83-1.85 1.852v7.754c0 .647.332 1.213.833 1.544.293.194.643.308 1.02.31.895-.002 1.642-.636 1.814-1.48.024-.122.037-.247.037-.375v-7.755c0-1.022-.83-1.852-1.853-1.852z"/></g></svg>