<svg width="25" height="25" viewBox="0 0 25 25" xmlns="http://www.w3.org/2000/svg"><title>Group Copy</title><g fill="#748598" fill-rule="evenodd"><path d="M12.5 18.906c-1.25 0-2.422-.35-3.477-1.015-1.054-.703-1.835-1.562-2.343-2.656L1.563 6.25C.468 8.164 0 10.313 0 12.5c0 3.125 1.016 5.86 3.047 8.164 2.03 2.344 4.57 3.71 7.578 4.18l3.633-6.29c-.352.118-.977.352-1.758.352"/><path d="M8.555 7.46c1.172-.897 2.46-1.21 3.945-1.21h10.742c-1.094-1.875-2.617-3.477-4.53-4.61C16.835.548 14.765 0 12.5 0c-1.953 0-3.79.43-5.47 1.25-1.678.82-3.24 2.03-4.413 3.594l3.633 6.093c.352-1.406 1.172-2.578 2.305-3.476"/><path d="M24.063 7.813h-7.266c1.25 1.25 2.11 2.89 2.11 4.687 0 1.328-.39 2.54-1.134 3.672L12.656 25c3.438-.04 6.328-1.25 8.75-3.71C23.79 18.827 25 15.937 25 12.5c0-1.602-.273-3.28-.938-4.688"/><path d="M12.5 7.813c2.59 0 4.688 2.098 4.688 4.687 0 2.59-2.1 4.688-4.688 4.688-2.59 0-4.688-2.1-4.688-4.688 0-2.59 2.1-4.688 4.688-4.688"/></g></svg>