<svg width="18" height="17" viewBox="0 0 18 17" xmlns="http://www.w3.org/2000/svg"><title>fi-social-github</title><path d="M8.703.052C3.897.052 0 3.95 0 8.756c0 3.845 2.493 7.108 5.952 8.258.436.08.594-.188.594-.42 0-.205-.008-.752-.01-1.48-2.422.527-2.933-1.166-2.933-1.166-.396-1.006-.967-1.273-.967-1.273-.79-.54.06-.53.06-.53.874.063 1.333.898 1.333.898.776 1.33 2.037.945 2.532.723.08-.563.304-.946.553-1.164-1.933-.22-3.964-.966-3.964-4.3 0-.952.34-1.73.896-2.337-.09-.22-.388-1.104.086-2.303 0 0 .73-.234 2.393.893.694-.194 1.44-.29 2.18-.294.738.004 1.483.1 2.178.295 1.662-1.127 2.39-.893 2.39-.893.476 1.2.177 2.084.088 2.303.56.608.895 1.385.895 2.336 0 3.344-2.034 4.08-3.973 4.295.312.27.59.8.59 1.613 0 1.163-.01 2.1-.01 2.387 0 .233.156.504.598.418 3.455-1.153 5.947-4.413 5.947-8.257 0-4.807-3.897-8.704-8.704-8.704z" fill="#8C9AAA" fill-rule="evenodd"/></svg>