<svg width="26" height="30" viewBox="0 0 26 30" xmlns="http://www.w3.org/2000/svg"><title>fi-social-apple</title><g fill="#748598" fill-rule="evenodd"><path d="M24.832 9.94c-1.527-1.902-3.67-3.003-5.693-3.003-2.677 0-3.808 1.27-5.665 1.27-1.914 0-3.37-1.268-5.684-1.268-2.272 0-4.69 1.38-6.222 3.74C-.59 14-.224 20.244 3.273 25.566c1.25 1.903 2.92 4.043 5.106 4.064 1.94.017 2.49-1.24 5.123-1.253 2.634-.015 3.132 1.266 5.073 1.248 2.184-.02 3.946-2.39 5.196-4.294.896-1.362 1.23-2.05 1.925-3.592-5.056-1.91-5.868-9.054-.865-11.797z" id="Shape"/><path d="M17.11 4.81c.97-1.247 1.71-3.01 1.44-4.81-1.587.11-3.444 1.12-4.53 2.437-.983 1.196-1.796 2.97-1.48 4.692 1.734.053 3.528-.983 4.57-2.32z"/></g></svg>