<svg xmlns="http://www.w3.org/2000/svg" viewBox="0 0 47.1 46.3"><path fill="none" stroke="#3B5062" stroke-width="2" stroke-miterlimit="10" d="M45.6 4.3H28V26h6.6l7.4 6v-6h3.6zM32.5 11.8h10M32.5 17.8h7M2 4.3h17.6V26H13l-7.4 6v-6H2zM6.5 11.8h10M6.5 17.8h7"/><path fill="#FFF" stroke="#3B5062" stroke-width="2" stroke-miterlimit="10" d="M32.6 15.3H15V37h6.6l7.4 6v-6h3.6z"/><path fill="#D0D7DD" d="M18 19.7V37h3.6l7.4 6v-6h3.6V19.7"/><path fill="none" stroke="#3B5062" stroke-width="2" stroke-miterlimit="10" d="M19.5 22.8h10M19.5 28.8h7M32.6 15.3H15V37h6.6l7.4 6v-6h3.6z"/></svg>