<svg xmlns="http://www.w3.org/2000/svg" viewBox="0 0 47.1 46.3"><path fill="#D0D7DD" d="M18.6 8.1h14.5v8H18.6z"/><circle fill="#FFF" stroke="#3B5062" stroke-width="2" stroke-miterlimit="10" cx="11.9" cy="37.3" r="5.6"/><path fill="#D0D7DD" d="M9 39.1c0 1.5.6 2.9 1.7 3.9.5.2 1.1.3 1.7.3 3.1 0 5.6-2.5 5.6-5.6 0-1.1-.3-2.2-.9-3-.8-.5-1.8-.8-2.8-.8-3-.1-5.3 2.3-5.3 5.2z"/><circle fill="none" stroke="#3B5062" stroke-width="2" stroke-miterlimit="10" cx="11.9" cy="37.3" r="5.6"/><circle fill="#FFF" stroke="#3B5062" stroke-width="2" stroke-miterlimit="10" cx="35.9" cy="37.3" r="5.6"/><path fill="#D0D7DD" d="M32.9 39.1c0 1.5.6 2.9 1.7 3.9.5.2 1.1.3 1.7.3 3.1 0 5.6-2.5 5.6-5.6 0-1.1-.3-2.2-.9-3-.8-.5-1.8-.8-2.8-.8-2.9-.1-5.3 2.3-5.3 5.2z"/><circle fill="none" stroke="#3B5062" stroke-width="2" stroke-miterlimit="10" cx="35.9" cy="37.3" r="5.6"/><path fill="none" stroke="#3B5062" stroke-width="2" stroke-miterlimit="10" d="M14.8 3.9h18v11.8h-18zM23.8 15.9v6.5M11.9 31.6v-9h23.9v9"/></svg>