<svg xmlns="http://www.w3.org/2000/svg" viewBox="0 0 47.1 46.3"><path fill="none" stroke="#3B5062" stroke-width="2" stroke-miterlimit="10" d="M36 43.7H11.2c-1.5 0-2.7-1.2-2.7-2.7V17.4h30.2v23.7c0 1.4-1.2 2.6-2.7 2.6z"/><path fill="#FFF" stroke="#3B5062" stroke-width="2" stroke-miterlimit="10" d="M36 19.7H11.2c-1.5 0-2.7-1.2-2.7-2.7 0-1.5 1.2-2.7 2.7-2.7H36c1.5 0 2.7 1.2 2.7 2.7 0 1.5-1.2 2.7-2.7 2.7z"/><path fill="none" stroke="#3B5062" stroke-width="2" stroke-miterlimit="10" d="M38.7 36.7H26.8c-2.5 0-4.6-2.1-4.6-4.6 0-2.5 2.1-4.6 4.6-4.6h11.9v9.2z"/><circle fill="none" stroke="#3B5062" stroke-width="2" stroke-miterlimit="10" cx="27.6" cy="32.1" r="1.2"/><path fill="#FFF" stroke="#3B5062" stroke-width="2" stroke-miterlimit="10" d="M28.6 6.3V3h-10v3.3h-7l12 11.2 12-11.2z"/><path fill="#D0D7DD" d="M23.8 17.4L35.3 6.5 18 11.6"/><path fill="none" stroke="#3B5062" stroke-width="2" stroke-miterlimit="10" d="M28.6 6.3V3h-10v3.3h-7l12 11.2 12-11.2z"/></svg>