<svg width="44" height="44" viewBox="0 0 44 44" xmlns="http://www.w3.org/2000/svg"><title>icon-globe</title><g transform="translate(1 1)" fill="none" fill-rule="evenodd"><circle id="Oval" stroke="#3B5062" stroke-width="2" cx="21.2" cy="20.9" r="20.3"/><path d="M.9 20.9h40.6M21.2.6v40.7" id="Shape" stroke="#3B5062" stroke-width="2"/><g id="Shape" stroke="#3B5062" stroke-width="2"><path d="M21.1 41.1c-6.5-4.4-10.8-11.9-10.8-20.3S14.5 5 21 .6M21.3 41.1c6.5-4.4 10.8-11.9 10.8-20.3S27.9 5 21.5.6"/></g><path d="M34.4 5.6c-3 4-7.8 6.5-13.1 6.5-5.4 0-10.2-2.6-13.2-6.6M34.4 37c-3-4-7.8-6.5-13.1-6.5-5.4 0-10.2 2.6-13.2 6.6" id="Shape" stroke="#3B5062" stroke-width="2"/><g transform="translate(20 22)"><circle id="Oval" stroke="#3B5062" stroke-width="2" fill="#FFF" cx="10.3" cy="9.9" r="9.4"/><path d="M4.3 12.1c0 2.5 1.1 4.8 2.8 6.4.9.3 1.9.4 2.9.4 5.2 0 9.4-4.2 9.4-9.4 0-1.9-.6-3.6-1.5-5.1-1.4-.8-2.9-1.3-4.6-1.3-5 .1-9 4.1-9 9z" fill="#D0D7DD"/><circle stroke="#3B5062" stroke-width="2" cx="10.3" cy="9.9" r="9.4"/></g><path d="M29.907 36.277c-.584-.048-1.057-.138-1.422-.27-.364-.132-.633-.242-.81-.33l.517-1.38c.28.136.613.26 1.002.372.388.11.797.167 1.23.167.488 0 .82-.066 1.002-.198.18-.133.27-.32.27-.56 0-.15-.036-.28-.11-.39-.07-.107-.174-.205-.31-.293-.137-.088-.308-.174-.517-.258-.21-.085-.448-.175-.72-.27-.265-.097-.522-.203-.774-.32-.253-.115-.48-.257-.684-.425-.205-.168-.368-.374-.492-.618-.125-.244-.186-.538-.186-.882 0-.264.037-.518.113-.762.077-.244.194-.466.355-.666.16-.2.367-.37.623-.51.257-.14.56-.242.912-.306v-1.295h1.512v1.248c.416.04.773.1 1.073.18.3.08.538.16.715.24l-.372 1.44c-.265-.112-.57-.208-.918-.288-.35-.08-.714-.12-1.098-.12-.385 0-.66.064-.83.192-.167.128-.25.296-.25.504 0 .13.025.24.078.33.052.093.133.175.245.247.113.072.25.142.415.21.164.068.36.142.593.222.354.127.68.267.98.42.3.15.56.325.78.52.22.197.39.427.516.69.124.265.186.573.186.925 0 .24-.036.478-.108.714-.073.235-.192.453-.36.653-.17.2-.386.372-.654.516-.27.143-.598.247-.99.31v1.465h-1.513v-1.428z" fill="#3B5062"/></g></svg>