<svg width="55" height="19" viewBox="0 0 55 19" xmlns="http://www.w3.org/2000/svg"><title>Imported Layers</title><g fill="#7D8790" fill-rule="evenodd"><path d="M54.83 4.614H52l-1.634 6.85-.252.933c-.188.063-.314.063-.503.125-.313.062-.565.062-.88.062-.376 0-.628-.062-.88-.187-.188-.124-.377-.25-.44-.435-.062-.187-.125-.436-.125-.685 0-.25.063-.56.125-.81l.88-3.55.567-2.365h-2.893l-1.32 5.48c-.19.684-.25 1.307-.25 1.867 0 .622.06 1.12.25 1.556.19.436.566.81 1.07 1.058.502.25 1.193.374 2.074.374.63 0 1.194-.063 1.634-.187h.063c-.126.562-.377.997-.817 1.37-.44.375-1.006.56-1.823.56-.315 0-.692 0-.943-.06l-.566 2.303c.377.062.817.062 1.257.062.88 0 1.635-.125 2.264-.31.63-.188 1.194-.5 1.697-.873.44-.374.88-.872 1.195-1.494.313-.623.564-1.308.753-2.117l1.95-8.156.376-1.37M42.946 10.467c-.188.685-.25 1.432-.188 2.18.063.747.377 1.805.628 2.366H40.62c-.314-.56-.314-.81-.377-.997-.377.312-.755.498-1.195.685-.44.188-.88.313-1.445.313-.63 0-1.195-.125-1.636-.312-.44-.186-.817-.497-1.13-.87-.315-.374-.504-.81-.63-1.308s-.188-.996-.188-1.62c0-.87.187-1.68.44-2.427.313-.747.753-1.432 1.32-1.993.565-.56 1.885-1.868 4.086-1.868h4.4l-1.32 5.853zM40.934 6.98c-1.32 0-1.57 0-2.137.25-.378.186-.692.498-1.006.87-.25.312-.502.75-.69 1.184-.19.436-.252.934-.252 1.432 0 .623.126 1.06.314 1.432.19.374.566.498 1.132.498.314 0 .566-.062.817-.186.253-.125.504-.312.756-.56 0-.312.063-.623.125-.997.064-.374.127-.685.19-.934l.754-2.99zM33.327 8.724c0 .934-.19 1.743-.44 2.553-.315.747-.755 1.43-1.258 1.992-.567.56-1.195.995-1.95 1.306-.754.312-1.572.5-2.452.5-.44 0-.88-.063-1.32-.126l-.88 3.425h-2.83l3.27-13.698h3.772c.692 0 1.32.124 1.823.31.504.188.944.5 1.258.873.315.373.567.81.755 1.307.19.436.252.997.252 1.557zm-6.98 3.86c.19.062.504.062.818.062.503 0 .943-.062 1.384-.25.376-.185.753-.434 1.067-.746.315-.31.503-.747.692-1.183.188-.436.25-.996.25-1.556s-.125-.995-.377-1.37c-.25-.373-.69-.56-1.257-.56h-1.132l-1.446 5.604zM20.438 12.584c-.377 0-.63-.062-.88-.187-.19-.124-.377-.25-.44-.435-.063-.187-.126-.436-.126-.685 0-.25.063-.56.126-.81l.88-3.55h3.206l.566-2.365H20.5l.755-2.99-3.018.5-1.886 8.032c-.187.684-.25 1.307-.25 1.868 0 .622.063 1.12.25 1.556.19.436.567.81 1.07 1.058.503.25 1.195.374 2.075.374.63 0 1.194-.062 1.635-.187.062 0 .125 0 .188-.062l.566-2.427c-.188.062-.377.124-.566.124-.314.187-.566.187-.88.187M13.208 4.614l-2.515 10.4h2.83l2.514-10.4h-2.83M16.29 3.37l.44-1.807H13.9l-.44 1.806h2.83M6.92 4.614c.63 0 1.132.125 1.572.312.44.187.817.498 1.132.872.314.373.503.81.63 1.307.124.498.187.996.187 1.556 0 .873-.187 1.683-.502 2.492-.314.747-.754 1.432-1.32 2.055-.566.622-1.195.996-2.012 1.37-.755.31-1.572.498-2.452.498h-.63c-.313 0-.627 0-1.005-.062-.378-.063-.755-.125-1.195-.25-.44-.124-.818-.25-1.195-.435L3.4.63 6.353.194 5.16 5.05c.25-.124.503-.186.754-.25.44-.186.692-.186 1.006-.186zm-2.514 8.094c.44 0 .88-.124 1.257-.31.377-.187.755-.5 1.006-.872.313-.374.502-.748.69-1.183.19-.436.252-.934.252-1.432 0-.622-.126-1.058-.314-1.432-.19-.31-.63-.497-1.195-.497-.19 0-.377 0-.63.063-.313.062-.502.187-.753.373l-1.258 5.168c.378.062.503.062.566.062.126.062.252.062.378.062z"/></g></svg>