<svg width="58" height="25" viewBox="0 0 58 25" xmlns="http://www.w3.org/2000/svg"><title>download 3 copy 2</title><g fill="#2C3E50" fill-rule="evenodd"><path d="M56.374 2.993c-.407.045-.837.137-1.297.28-.146.047-.276.138-.4.26-.122.13-.222.227-.298.31-.078.085-.155.23-.24.442-.084.212-.145.372-.183.494-.04.113-.1.333-.185.652-.092.32-.153.562-.207.73-.36 1.208-.936 2.43-1.72 3.685-.782 1.254-1.465 1.907-2.048 1.968-.307.03-.49-.22-.552-.767-.115-1.026.1-2.318.62-3.883.53-1.566 1.09-2.668 1.697-3.313.085-.107.13-.19.123-.26-.008-.06-.046-.09-.107-.082-.86.09-1.528.266-2.003.53-.476.26-.898.777-1.29 1.552-.3.6-.552 1.345-.775 2.25-1.09 2.59-2.08 3.935-2.97 4.026-.29.03-.46-.16-.506-.577-.084-.797.16-2.12.752-3.958.59-1.84 1.128-3.002 1.62-3.488l-.246.023-1.22.106c-.323.038-.66.205-1.006.517-.345.31-.583.66-.72 1.048-.2-.493-.546-.835-1.022-1.018-.483-.182-.982-.25-1.496-.19-1.105.122-2.072.63-2.916 1.543-.837.904-1.443 1.968-1.812 3.17l-.023.067c-.053.122-.122.258-.184.403-.413.896-.735 1.535-.973 1.915-.438.69-.967 1.345-1.597 1.945-.63.6-1.28.942-1.95 1.01l-.19.023c.982-.82 1.787-1.907 2.424-3.275.637-1.367.89-2.65.76-3.874-.16-1.474-.783-2.15-1.872-2.037-1.15.12-2.38 1.26-3.67 3.404.638-1.687 1.176-2.72 1.613-3.086l-.73.076c-.958.1-1.61.365-1.956.79-.17.23-.415.86-.715 1.9-.107.373-.253.92-.445 1.634-.575 1.307-1.258 2-2.05 2.082-.45.046-.82-.083-1.104-.395.246-.89.33-1.71.246-2.485-.223-2.02-1.297-2.925-3.23-2.72-1.152.122-2.157.615-3.01 1.49-.513.524-.935 1.094-1.258 1.71 0-.01.008-.016.008-.024-.783 1.452-2.134 3.974-3.83 5.418-1.695 1.444-3.368 2.257-5.01 2.432-2.633.28-4.106-1.003-4.413-3.853-.2-1.84.083-3.708.858-5.593.775-1.892 1.888-3.48 3.338-4.764 1.45-1.284 3.01-2.02 4.666-2.204 1.25-.136 1.927.266 2.026 1.193.07.608-.146 1.155-.637 1.65-.49.486-1.05.767-1.68.835-.23.023-.437.015-.62-.03-.17.296-.24.562-.208.798.023.243.16.425.407.554.244.13.543.175.904.137.76-.084 1.474-.388 2.134-.913.66-.524 1.082-1.124 1.266-1.816.092-.364.123-.69.092-.98-.085-.782-.553-1.39-1.404-1.808C13.1.234 11.926.105 10.437.265 8.94.425 7.475.987 6.024 1.952c-1.45.965-2.617 2.12-3.5 3.472C1.635 6.777.975 8.206.53 9.718.084 11.23-.06 12.65.084 13.98c.384 3.51 2.48 5.062 6.3 4.65 1.643-.173 3.216-.66 4.72-1.465 1.505-.798 2.725-1.794 3.646-2.964.145-.19.276-.37.406-.546.008.137.016.266.03.403.108 1.003.446 1.717 1.014 2.15.568.433 1.25.608 2.064.517 1.267-.137 2.264-.578 3-1.315.738-.738 1.33-1.718 1.79-2.91.42.265.905.364 1.45.303.468-.053.943-.29 1.434-.722-.237.966-.506 2.083-.813 3.367-.89 3.73-1.512 5.927-1.872 6.58l1.166-.12c.32-.04.59-.107.79-.206.2-.105.375-.303.514-.6.138-.295.322-.934.544-1.914l.906-4.347c.284.767 1.197 1.063 2.763.896 1.557-.167 2.854-.798 3.883-1.9.637-.676 1.22-1.504 1.765-2.47-.016.388 0 .776.038 1.163.16 1.474.783 2.15 1.873 2.036 1.573-.167 3.115-1.968 4.612-5.403-.238.996-.3 1.99-.192 2.986.146 1.33.652 1.945 1.535 1.854 1.13-.122 2.357-1.43 3.684-3.914-.07.593-.084 1.087-.046 1.474.062.67.246 1.155.545 1.475.3.318.66.447 1.09.4.43-.044.798-.135 1.105-.265.307-.13.714-.463 1.22-.995.507-.532 1.09-1.315 1.757-2.34l-.99 3.8c-.636 2.415-1.62 3.7-2.93 3.836-.34.038-.63-.023-.868-.19-.238-.16-.376-.395-.407-.7-.06-.576.046-.926.33-1.055-.1-.15-.253-.28-.46-.387-.208-.106-.453-.144-.737-.114-.284.03-.522.197-.706.5-.192.305-.26.632-.223.99.077.675.415 1.13 1.03 1.382.613.25 1.32.334 2.132.243.814-.084 1.596-.372 2.348-.843.752-.48 1.36-1.072 1.827-1.786.47-.715.837-1.657 1.12-2.82.11-.387.24-.926.4-1.633.16-.707.27-1.148.307-1.33.046-.182.17-.7.376-1.558.2-.858.46-1.808.775-2.865.392-1.253.82-2.066 1.29-2.424l-1.044.107zM22.186 8.64c-.407.044-.714.204-.92.485-.208.28-.293.638-.24 1.072.078.706.415 1.26 1.022 1.664-.307.928-.722 1.786-1.236 2.577-.514.79-1.12 1.223-1.82 1.3-.85.045-1.326-.42-1.434-1.376-.107-.957.07-2.066.53-3.312.836-2.265 1.82-3.45 2.94-3.572.713-.076 1.15.304 1.304 1.148l-.146.015zm6.2 6.192c-.468.053-.744-.304-.828-1.056-.085-.753.184-1.763.805-3.025.622-1.26 1.236-2.187 1.842-2.772.37-.365.73-.563 1.067-.6.1-.008.17-.008.222 0 .254.037.4.258.446.66.1.928-.254 2.273-1.067 4.028-.814 1.755-1.642 2.675-2.487 2.766zM41.31 9.49c-.376.752-.82 1.42-1.336 1.998-.514.578-.982.897-1.404.943-.39.04-.614-.182-.668-.683-.122-1.155.238-2.515 1.082-4.088.845-1.574 1.804-2.418 2.878-2.532.6-.06 1.013.152 1.228.646-.353.798-.944 2.037-1.78 3.716z" id="Shape"/><path d="M23.114 18.04c-5.533.933-10.843 2.255-14.588 3.775-1.566.63-1.957 1.9-1.466 3.093 6.362-2.872 9.516-3.685 14.167-4.825.82-.205 1.48-.813 1.75-1.61.045-.153.09-.298.137-.434z" id="Shape"/><path d="M43.82 17.415c.16-.683-.024-.714-.73-.813-3.86-.554-8.104-.516-13.215.57-.86.183-1.565.775-1.703 1.642 0 0 6.415-2.09 15.647-1.4z"/></g></svg>