<svg width="102" height="45" viewBox="0 0 102 45" xmlns="http://www.w3.org/2000/svg"><title>download 3 copy</title><g fill="#FFF" fill-rule="evenodd"><path d="M99.666 5.304c-.72.08-1.48.243-2.293.5-.258.08-.488.24-.706.456-.217.23-.393.404-.53.553-.134.148-.27.404-.42.78-.148.378-.257.66-.325.876-.068.2-.176.592-.325 1.157-.163.566-.272.997-.367 1.293-.637 2.142-1.655 4.31-3.04 6.532-1.383 2.222-2.59 3.38-3.62 3.488-.544.054-.87-.39-.978-1.36-.204-1.818.176-4.108 1.1-6.882.935-2.774 1.925-4.727 2.997-5.872.148-.188.23-.337.216-.458-.013-.108-.08-.16-.19-.148-1.52.162-2.7.47-3.54.943-.842.458-1.588 1.373-2.28 2.747-.53 1.064-.977 2.384-1.37 3.987-1.927 4.592-3.677 6.976-5.25 7.137-.517.054-.815-.283-.896-1.023-.15-1.413.284-3.757 1.33-7.016 1.044-3.26 1.994-5.32 2.862-6.18l-.434.04-2.158.188c-.57.067-1.166.363-1.777.915-.61.553-1.03 1.172-1.275 1.86-.353-.877-.963-1.483-1.805-1.806-.854-.322-1.736-.443-2.645-.335-1.954.215-3.663 1.117-5.156 2.733-1.48 1.603-2.55 3.49-3.202 5.616l-.04.122c-.095.215-.218.457-.326.713-.733 1.59-1.303 2.72-1.723 3.393-.772 1.226-1.71 2.384-2.82 3.448-1.114 1.065-2.267 1.67-3.447 1.792l-.34.04c1.737-1.454 3.162-3.38 4.288-5.804 1.127-2.424 1.575-4.7 1.344-6.868-.285-2.613-1.384-3.812-3.31-3.61-2.036.216-4.206 2.236-6.486 6.034 1.126-2.99 2.076-4.822 2.85-5.468l-1.29.135c-1.695.176-2.85.647-3.46 1.4-.298.405-.732 1.523-1.26 3.368-.19.66-.45 1.63-.788 2.896-1.017 2.316-2.225 3.542-3.622 3.69-.8.08-1.452-.148-1.954-.7.434-1.576.583-3.03.434-4.405-.393-3.583-2.293-5.186-5.712-4.822-2.035.216-3.812 1.09-5.318 2.64-.91.93-1.655 1.94-2.225 3.03 0-.014.013-.027.013-.04-1.383 2.572-3.77 7.043-6.77 9.602-2.998 2.56-5.956 4-8.86 4.31-4.653.498-7.258-1.778-7.8-6.83-.353-3.258.15-6.57 1.52-9.91 1.37-3.354 3.337-6.17 5.9-8.445 2.565-2.276 5.32-3.582 8.25-3.905 2.21-.243 3.405.47 3.582 2.114.122 1.077-.258 2.047-1.126 2.922-.87.862-1.86 1.36-2.972 1.482-.407.04-.773.027-1.1-.054-.297.525-.42.997-.365 1.414.04.43.285.754.72.983.433.23.962.31 1.6.244 1.343-.148 2.605-.687 3.772-1.616 1.167-.93 1.913-1.994 2.238-3.22.163-.646.218-1.225.163-1.736-.15-1.388-.977-2.465-2.483-3.206-1.506-.74-3.58-.97-6.213-.687-2.646.282-5.237 1.28-7.802 2.99-2.564 1.71-4.626 3.757-6.186 6.154-1.574 2.397-2.74 4.93-3.528 7.61C.15 19.903-.11 22.42.15 24.777.827 31 4.53 33.748 11.287 33.02c2.903-.31 5.685-1.17 8.344-2.6 2.66-1.413 4.816-3.177 6.444-5.25.258-.338.49-.66.72-.97.013.242.027.47.054.713.19 1.778.787 3.044 1.79 3.81 1.005.77 2.212 1.08 3.65.917 2.24-.242 4.003-1.023 5.305-2.33 1.303-1.306 2.347-3.043 3.16-5.158.748.47 1.602.647 2.566.54.828-.095 1.67-.513 2.538-1.28-.42 1.71-.896 3.69-1.438 5.966-1.574 6.612-2.673 10.504-3.31 11.662l2.06-.215c.57-.067 1.046-.19 1.4-.364.352-.187.664-.537.908-1.063.244-.525.57-1.656.963-3.393l1.602-7.704c.502 1.36 2.117 1.886 4.884 1.59 2.754-.297 5.047-1.415 6.865-3.368 1.127-1.198 2.16-2.666 3.122-4.377-.027.687 0 1.374.068 2.06.285 2.614 1.384 3.812 3.31 3.61 2.78-.296 5.508-3.488 8.154-9.575-.42 1.764-.53 3.528-.34 5.293.26 2.356 1.154 3.447 2.714 3.286 1.995-.217 4.166-2.533 6.513-6.937-.12 1.05-.15 1.926-.08 2.613.108 1.185.433 2.047.963 2.612.53.566 1.166.795 1.926.714.76-.08 1.41-.242 1.953-.47.543-.23 1.262-.823 2.157-1.766.896-.942 1.927-2.33 3.107-4.148l-1.75 6.734c-1.126 4.283-2.863 6.56-5.183 6.8-.597.07-1.112-.04-1.533-.335-.42-.283-.664-.7-.718-1.24-.11-1.023.08-1.642.583-1.87-.176-.27-.447-.5-.814-.688-.365-.19-.8-.257-1.3-.203-.503.054-.924.35-1.25.89-.34.537-.46 1.116-.393 1.75.136 1.198.733 2.006 1.818 2.45 1.086.445 2.334.593 3.772.43 1.438-.147 2.822-.658 4.152-1.493 1.328-.85 2.4-1.9 3.228-3.165.827-1.267 1.478-2.937 1.98-4.998.19-.687.42-1.643.706-2.895.285-1.253.475-2.034.543-2.357.08-.323.298-1.24.664-2.76.354-1.523.815-3.206 1.372-5.078.692-2.222 1.45-3.663 2.28-4.296l-1.846.188zM39.223 15.31c-.72.08-1.262.364-1.628.863-.366.498-.515 1.13-.42 1.898.135 1.254.732 2.237 1.804 2.95-.544 1.644-1.276 3.166-2.185 4.566-.91 1.4-1.98 2.17-3.216 2.303-1.507.08-2.348-.74-2.538-2.438-.19-1.697.122-3.664.936-5.872 1.48-4.014 3.216-6.114 5.197-6.33 1.26-.135 2.035.54 2.306 2.034l-.257.027zm10.963 10.977c-.828.094-1.316-.54-1.466-1.872-.15-1.334.326-3.125 1.425-5.36 1.1-2.236 2.184-3.88 3.256-4.916.652-.648 1.29-.998 1.887-1.065.176-.013.298-.013.393 0 .448.067.706.458.787 1.172.177 1.643-.447 4.026-1.886 7.137-1.437 3.11-2.902 4.74-4.394 4.903zm22.847-9.468c-.665 1.332-1.452 2.517-2.36 3.54-.91 1.024-1.737 1.59-2.483 1.67-.692.068-1.086-.322-1.18-1.21-.218-2.048.42-4.46 1.912-7.247 1.493-2.787 3.19-4.282 5.088-4.484 1.058-.11 1.79.268 2.17 1.143-.623 1.414-1.668 3.61-3.147 6.586z" id="Shape"/><path d="M40.865 31.97c-9.782 1.656-19.17 4-25.792 6.693-2.767 1.118-3.46 3.367-2.59 5.482 11.246-5.09 16.823-6.532 25.044-8.552 1.452-.364 2.62-1.44 3.094-2.855.082-.27.163-.526.245-.768z" id="Shape"/><path d="M77.47 30.866c.285-1.212-.04-1.266-1.29-1.44-6.824-.985-14.326-.917-23.362 1.01-1.52.322-2.768 1.372-3.012 2.908 0 0 11.342-3.704 27.664-2.478z"/></g></svg>