<svg width="170" height="170" viewBox="0 0 170 170" xmlns="http://www.w3.org/2000/svg"><title>Imported Layers</title><g fill="none" fill-rule="evenodd"><path d="M107.512 118.255c-6.277 3.884-13.918 6.17-22.168 6.17-8.03 0-15.485-2.16-21.665-5.854-6.848 3.3-12.853 8.07-17.6 13.908 10.97 8.643 24.815 13.8 39.864 13.8 15.05 0 28.894-5.157 39.864-13.8-4.905-6.033-11.16-10.915-18.296-14.223" fill="#E7EBEB"/><path d="M169.204 85.093C169.204 38.58 131.364.74 84.852.74S.5 38.58.5 85.094c0 26.843 12.62 50.78 32.22 66.24l-.03.1 1.974 1.463c12.178 9.03 26.274 14.493 41.192 16.064.288.03.576.057.864.085 1.035.098 2.073.177 3.115.238.343.02.685.044 1.03.06 1.324.062 2.652.102 3.987.102 1.358 0 2.71-.04 4.056-.103.32-.015.635-.04.953-.06 1.09-.06 2.172-.143 3.25-.247.247-.024.493-.05.738-.076 15.71-1.646 30.44-7.59 43.03-17.466l1.934-1.517-.028-.085c18.575-15.485 30.42-38.782 30.42-64.8zm-76.215 76.92c-.19.02-.38.04-.568.057-1.006.098-2.02.172-3.036.23-.287.018-.574.038-.862.052-1.217.057-2.44.093-3.672.093-1.213 0-2.418-.036-3.618-.092-.3-.014-.6-.033-.9-.05-1.004-.06-2.003-.133-2.995-.23-.197-.018-.393-.034-.588-.054-13.225-1.384-25.46-6.12-35.86-13.33 4.024-11.193 12.11-20.286 22.243-25.816 6.558 3.227 13.926 5.052 21.717 5.052 8.275 0 16.075-2.055 22.933-5.668 10.22 5.232 18.423 14.072 22.754 25.2-10.75 7.898-23.602 13.09-37.55 14.556zM54.24 86.746c12.745 0 24.47-6.333 31.47-16.766 6.507 4.308 14.203 6.646 22.062 6.646 6.678 0 13.143-1.638 18.936-4.767.346 2.176.53 4.405.53 6.678 0 23.373-19.015 42.388-42.388 42.388-21.166 0-38.758-15.594-41.892-35.896 3.626 1.132 7.4 1.715 11.282 1.715zm-11.75-9.31c.586-22.813 19.272-41.2 42.204-41.283.503.003 1.004.01 1.503.03h.007c17.556.708 32.822 12.284 38.253 28.91-5.043 2.974-10.762 4.534-16.686 4.534-7.595 0-15.005-2.647-20.866-7.454l-3.314-2.718-2 3.79c-5.373 10.178-15.854 16.5-27.352 16.5-4.09 0-8.034-.775-11.75-2.31zm93.715 65.435c-4.586-10.515-12.248-19.1-21.705-24.862 11.978-9.02 19.74-23.355 19.74-39.47 0-26.653-21.226-48.43-47.66-49.346h-.015c-.57-.02-1.14-.044-1.715-.044-.054 0-.106.004-.16.004-.064 0-.128-.004-.192-.004-15.514 0-29.782 7.107-39.146 19.5-6.47 8.562-9.89 18.777-9.89 29.537l.002.215c0 .046-.003.09-.003.138 0 .213.013.423.016.636.003.208.002.418.01.626l.026.83c.007.17.008.344.016.514l.025.75.034.016c1.033 15.212 8.98 28.557 20.717 36.904-9.363 6.04-16.895 14.854-21.204 25.447C18.24 130.06 7.5 108.813 7.5 85.094 7.5 42.44 42.2 7.74 84.852 7.74s77.352 34.7 77.352 77.353c0 22.956-10.063 43.598-25.997 57.777z" fill="#D6D8D8"/></g></svg>