<svg width="170" height="169" viewBox="0 0 170 169" xmlns="http://www.w3.org/2000/svg"><title>Imported Layers</title><g fill="none" fill-rule="evenodd"><path d="M108.526 116.47c-6.277 3.885-13.918 6.173-22.168 6.173-8.03 0-15.485-2.16-21.665-5.856-6.847 3.3-12.852 8.07-17.598 13.907 10.97 8.643 24.815 13.8 39.864 13.8 15.048 0 28.893-5.157 39.862-13.8-4.905-6.033-11.16-10.915-18.296-14.223" fill="#E7EBEB"/><path d="M169.6 84.594C169.6 38.082 131.757.242 85.246.242 38.735.242.894 38.082.894 84.594c0 26.843 12.62 50.78 32.22 66.24l-.03.1 1.974 1.463c12.18 9.03 26.274 14.493 41.193 16.064.288.03.576.058.865.086 1.034.098 2.073.177 3.115.238.343.02.685.044 1.03.06 1.324.062 2.652.102 3.987.102 1.358 0 2.71-.04 4.056-.103.318-.015.635-.04.952-.06 1.088-.06 2.172-.143 3.25-.247.247-.024.492-.05.738-.075 15.708-1.645 30.44-7.588 43.03-17.465l1.933-1.517-.027-.085c18.573-15.485 30.42-38.782 30.42-64.8zm-76.216 76.92c-.19.02-.38.04-.568.057-1.006.1-2.02.173-3.035.232-.287.017-.573.037-.86.05-1.22.058-2.442.094-3.673.094-1.214 0-2.42-.037-3.618-.092-.302-.014-.602-.033-.902-.05-1.003-.06-2.002-.133-2.995-.23-.195-.018-.39-.034-.586-.054-13.225-1.383-25.46-6.12-35.86-13.33 4.023-11.192 12.11-20.285 22.242-25.816 6.557 3.228 13.925 5.053 21.717 5.053 8.274 0 16.075-2.055 22.933-5.668 10.22 5.23 18.423 14.07 22.753 25.2-10.75 7.897-23.6 13.09-37.55 14.555zm-50.45-83.458c0-.37.02-.733.03-1.1-.025-.007-.06-.012-.08-.02.59-22.813 19.275-41.2 42.207-41.283.503.003 1.005.01 1.504.03h.007c2.228.09 4.418.357 6.555.784 17.454 3.29 31.123 17.284 33.917 34.908l.032-.015c.346 2.177.53 4.406.53 6.68 0 23.372-19.014 42.387-42.387 42.387-21.167 0-38.758-15.594-41.892-35.896.02.007.052.01.076.016-.325-2.116-.495-4.283-.495-6.49zm93.668 64.315c-4.586-10.514-12.25-19.1-21.705-24.86 11.978-9.02 19.738-23.356 19.738-39.47 0-26.654-21.224-48.43-47.657-49.347h-.016c-.57-.02-1.14-.044-1.715-.044-.054 0-.107.003-.16.003-.064 0-.128-.004-.193-.004-15.513 0-29.78 7.106-39.145 19.498-6.472 8.563-9.893 18.778-9.893 29.538 0 .072.004.143.004.215 0 .047-.003.092-.003.14 0 .212.014.422.016.635.005.208.004.418.01.626l.027.83c.008.172.008.345.017.515l.024.75.036.016c1.03 15.213 8.98 28.558 20.716 36.905-9.364 6.04-16.896 14.854-21.205 25.448-16.862-14.2-27.603-35.45-27.603-59.17 0-42.65 34.7-77.35 77.353-77.35 42.65 0 77.352 34.7 77.352 77.35 0 22.957-10.064 43.6-25.998 57.778z" fill="#D6D8D8"/></g></svg>