<svg width="170" height="169" viewBox="0 0 170 169" xmlns="http://www.w3.org/2000/svg"><title>Imported Layers</title><g fill="none" fill-rule="evenodd"><path d="M107.38 118.025c-6.656 3.76-14.338 5.915-22.528 5.915-8.043 0-15.6-2.075-22.172-5.71-6.722 3.294-12.62 8.01-17.297 13.762 10.97 8.643 24.814 13.8 39.864 13.8 15.05 0 28.894-5.157 39.863-13.8-4.776-5.874-10.83-10.665-17.73-13.967" fill="#E7EBEB"/><path d="M85.247.255C38.735.255.894 38.095.894 84.607c0 42.517 31.626 77.768 72.585 83.513 3.552.542 7.178.84 10.886.84.163 0 .325-.01.488-.01.132 0 .26.01.393.01 46.51 0 84.352-37.84 84.352-84.353C169.6 38.095 131.757.255 85.246.255zM59.024 72.81c10.06 0 19.404-4.034 26.223-11.198 6.818 7.164 16.162 11.2 26.222 11.2 5.317 0 10.52-1.168 15.282-3.383.578 2.784.884 5.668.884 8.622 0 23.373-19.016 42.388-42.39 42.388-23.373 0-42.388-19.015-42.388-42.388 0-2.954.306-5.838.884-8.623 4.763 2.214 9.965 3.38 15.282 3.38zM45.77 62.646c5.657-14.448 19.016-25.06 35.006-26.745l.387-.037c.525-.05 1.053-.09 1.583-.12.173-.01.345-.022.52-.03.656-.03 1.316-.05 1.98-.05.665 0 1.325.02 1.982.05.174.008.346.02.52.03.53.03 1.057.07 1.582.12l.387.037c15.99 1.684 29.35 12.297 35.008 26.745-4.087 2.077-8.618 3.166-13.256 3.166-9.296 0-17.834-4.268-23.425-11.71l-2.798-3.724-2.8 3.725c-5.59 7.442-14.127 11.71-23.423 11.71-4.638 0-9.17-1.088-13.255-3.165zm81.866 40.72v25.91c-3.754-4.51-8.197-8.37-13.146-11.454 5.28-3.892 9.76-8.81 13.146-14.456zm-71.343 14.662c-5.075 3.2-9.627 7.206-13.435 11.872v-26.536c3.446 5.75 8.03 10.737 13.435 14.663zm6.78 4.135c6.672 3.368 14.202 5.278 22.174 5.278 8.098 0 15.74-1.97 22.492-5.44 8.366 4.39 15.336 11.225 19.896 19.75v.035h.02c.898 1.683 1.714 3.425 2.416 5.235-13.18 9.685-28.748 14.827-45.207 14.93-16.477-.08-31.742-5.35-44.27-14.24 4.14-11.117 12.297-20.122 22.477-25.548zm72.884 20.78c-.417-.98-.854-1.95-1.32-2.897V78.367h-.01c0-.105.01-.21.01-.315 0-4.235-.538-8.346-1.545-12.27l.07-.046-.81-2.566c-5.745-18.207-21.156-31.137-39.577-33.934l-.065-.01c-.715-.107-1.436-.198-2.16-.275-.185-.018-.37-.037-.556-.054-.592-.056-1.186-.1-1.782-.136-.21-.013-.418-.028-.628-.038-.776-.036-1.554-.06-2.337-.06-.784 0-1.562.024-2.338.06-.21.01-.42.025-.63.038-.595.035-1.19.08-1.78.136-.186.017-.37.036-.556.055-.725.078-1.445.17-2.16.277-.022.003-.044.005-.065.01-18.423 2.796-33.833 15.726-39.58 33.933l-.81 2.566.072.046c-1.007 3.924-1.544 8.035-1.544 12.27 0 .106.007.21.008.315h-.008v62.57c-.356.748-.69 1.51-1.01 2.275-16.485-14.196-26.954-35.195-26.954-58.605 0-42.652 34.7-77.352 77.353-77.352 42.65 0 77.352 34.7 77.352 77.352 0 23.262-10.338 44.143-26.643 58.335z" fill="#D6D8D8"/></g></svg>